<?xml version="1.0" standalone="no"?>
<svg version="1.0" xmlns="http://www.w3.org/2000/svg"
 width="1500.000000pt" height="1500.000000pt" viewBox="0 0 1500.000000 1500.000000"
 preserveAspectRatio="xMidYMid meet">

<g transform="translate(0.000000,1500.000000) scale(0.100000,-0.100000)"
fill="#000000" stroke="none">
<path d="M4515 14379 c-613 -60 -1134 -264 -1565 -613 -115 -93 -333 -310
-423 -421 -284 -352 -462 -770 -529 -1245 -20 -146 -18 -625 5 -765 35 -225
103 -456 179 -610 41 -82 122 -225 128 -225 3 0 5 93 6 207 0 172 4 226 21
309 18 87 312 1034 332 1072 5 8 89 -181 207 -465 220 -527 252 -589 389 -732
84 -88 188 -173 328 -269 l92 -63 6 238 c10 356 66 682 162 928 32 81 35 102
41 222 14 343 132 631 345 843 250 249 578 347 926 275 343 -71 605 -323 728
-700 36 -109 55 -211 68 -359 25 -282 -39 -630 -167 -905 -24 -52 -44 -100
-44 -108 0 -16 82 -130 167 -230 125 -149 289 -316 518 -527 132 -122 300
-278 375 -348 74 -69 138 -124 143 -121 13 8 192 285 244 378 237 425 393 849
470 1280 23 133 26 176 27 385 1 246 -7 327 -51 554 -92 481 -325 927 -659
1261 -409 408 -937 651 -1614 741 -145 19 -707 28 -855 13z"/>
<path d="M4289 11810 c-71 -107 -113 -209 -159 -385 -64 -243 -84 -417 -84
-700 1 -243 17 -373 64 -526 19 -63 23 -68 88 -111 144 -96 321 -257 428 -388
109 -135 216 -336 239 -450 6 -29 -3 -20 -53 56 -153 235 -360 397 -912 714
-453 261 -618 371 -792 526 -151 136 -299 326 -364 469 -32 69 -33 67 -61 -72
-12 -61 -17 -134 -16 -238 1 -223 41 -394 137 -580 22 -44 42 -83 44 -87 2 -3
-40 5 -92 18 -207 53 -587 89 -856 82 l-125 -3 57 -32 c149 -85 399 -322 501
-474 72 -108 97 -173 97 -250 0 -73 -13 -99 -82 -165 -96 -92 -187 -148 -578
-359 -312 -168 -460 -254 -610 -356 -113 -76 -315 -237 -308 -244 2 -3 51 4
108 15 343 61 657 49 841 -33 121 -54 226 -164 271 -282 20 -53 23 -77 23
-210 -1 -139 -4 -167 -49 -380 -26 -126 -50 -241 -53 -254 -5 -19 16 -5 92 63
400 355 1026 714 1462 836 58 17 115 30 125 30 10 0 18 4 18 8 0 19 -400 96
-565 110 l-80 7 45 49 c149 162 428 332 705 429 128 45 377 102 528 122 150
19 429 19 566 0 57 -8 106 -17 108 -19 2 -2 -33 -7 -79 -11 -344 -28 -733
-132 -1007 -269 -98 -48 -209 -118 -195 -123 5 -1 84 -18 175 -38 158 -33 425
-106 457 -124 12 -7 -7 -20 -74 -54 -306 -155 -610 -468 -748 -768 -57 -125
-57 -125 11 -84 167 99 430 150 651 125 375 -41 636 -238 719 -540 13 -48 18
-100 17 -200 0 -117 -4 -147 -27 -223 -57 -184 -165 -354 -280 -438 -38 -28
-38 -28 -14 -34 63 -16 381 26 480 64 21 8 27 8 27 -3 0 -24 -59 -130 -109
-196 -67 -89 -216 -231 -282 -269 l-54 -31 45 0 c63 0 209 25 313 54 398 110
739 346 871 603 9 18 16 36 16 41 0 5 -28 3 -62 -5 -129 -30 -266 -5 -325 59
-62 67 -57 257 15 536 l29 112 -49 -46 c-55 -51 -118 -83 -164 -84 -44 0 -95
38 -121 90 -57 111 -3 392 123 643 l34 67 -27 11 c-88 33 -318 67 -523 76
l-145 7 90 28 c457 143 1268 195 1528 98 156 -58 167 -206 35 -471 l-63 -126
185 -6 c284 -10 457 -43 608 -117 145 -72 243 -198 272 -349 14 -76 12 -205
-4 -276 -8 -33 -13 -61 -12 -62 7 -7 133 77 197 131 249 208 448 563 529 941
23 106 39 418 25 491 l-7 37 -35 -64 c-55 -98 -217 -255 -314 -302 -41 -20
-80 -37 -86 -37 -6 0 -12 29 -15 68 -7 126 -86 233 -219 295 l-70 32 7 60 c11
97 6 270 -11 361 -62 330 -274 694 -603 1036 -59 61 -238 231 -398 378 -643
591 -874 863 -1049 1233 -87 185 -120 306 -139 512 l-12 130 -31 -55 c-41 -72
-88 -207 -114 -328 -25 -120 -37 -411 -20 -518 24 -155 41 -190 148 -304 54
-57 242 -235 418 -396 408 -372 573 -541 721 -739 129 -171 209 -305 272 -456
57 -135 60 -155 9 -68 -60 104 -97 158 -185 269 -98 123 -406 431 -647 646
-649 580 -873 811 -1080 1118 -190 282 -281 540 -294 836 l-6 145 -36 -55z
m1657 -3016 c155 -79 292 -198 398 -348 48 -66 136 -231 136 -253 0 -32 -163
-6 -269 42 -83 39 -196 159 -253 270 -36 69 -128 308 -128 331 0 12 36 -1 116
-42z"/>
<path d="M11609 9615 c-104 -21 -267 -79 -380 -136 -196 -98 -364 -216 -686
-482 -221 -182 -309 -247 -374 -277 -59 -26 -119 -26 -154 2 -25 20 -27 25
-22 75 9 85 94 243 244 452 17 24 16 23 -27 -4 -182 -114 -380 -269 -546 -428
-372 -355 -723 -852 -899 -1270 -45 -108 -100 -275 -93 -282 2 -2 45 43 96
100 472 532 1280 1012 2030 1206 228 59 388 81 622 86 118 3 233 1 255 -4 35
-8 25 -11 -90 -22 -561 -54 -1165 -287 -1745 -674 -573 -382 -1137 -921 -1617
-1546 -40 -52 -73 -97 -73 -101 0 -4 19 -12 42 -19 58 -18 224 -105 284 -151
28 -21 177 -142 333 -269 155 -127 284 -231 286 -231 2 0 56 105 119 233 293
592 597 1078 957 1527 201 251 289 341 443 455 524 385 1299 440 1784 126 34
-23 67 -41 72 -41 5 0 33 18 62 41 119 91 442 227 712 299 469 125 994 163
1295 94 35 -8 66 -13 68 -11 6 6 -174 179 -262 252 -557 461 -1270 727 -1880
702 -261 -11 -446 -49 -795 -162 -113 -36 -232 -69 -266 -72 -57 -5 -63 -4
-95 25 -30 27 -34 36 -34 80 0 41 7 59 39 106 57 83 189 186 376 293 l75 43
-45 -1 c-25 0 -75 -7 -111 -14z"/>
<path d="M1570 7787 c-532 -442 -940 -1035 -1105 -1603 -46 -157 -105 -467
-92 -480 2 -2 27 25 56 61 110 135 243 235 313 235 17 0 39 -10 53 -25 21 -20
25 -34 25 -86 0 -69 -14 -132 -70 -304 -196 -610 -265 -1336 -184 -1940 85
-635 319 -1196 695 -1665 96 -120 299 -343 306 -336 2 2 -12 56 -32 121 -83
274 -86 437 -8 505 70 62 118 34 272 -159 188 -236 357 -411 561 -583 133
-112 485 -313 735 -418 442 -188 949 -283 1420 -266 754 26 1394 221 1978 602
254 166 442 321 679 561 177 179 272 288 428 495 197 261 381 551 542 855 l76
142 -67 65 c-141 137 -1102 940 -1142 954 -5 2 -19 -14 -31 -35 -145 -248
-380 -543 -625 -785 -156 -153 -215 -206 -358 -313 -413 -311 -824 -452 -1213
-416 -363 33 -664 169 -920 415 -144 139 -246 278 -336 457 -152 303 -216 587
-216 959 0 730 308 1447 908 2115 l90 100 -46 14 c-72 21 -311 20 -390 -2
-112 -31 -161 -60 -522 -311 -195 -135 -358 -246 -361 -246 -12 0 151 877 175
943 14 37 24 67 22 67 -1 0 -53 -27 -115 -60 -275 -148 -588 -362 -745 -510
-32 -30 -214 -225 -404 -433 -189 -208 -346 -376 -348 -374 -2 2 12 235 32
518 35 512 35 515 85 769 28 140 53 296 55 345 5 87 4 91 -23 123 l-28 33
-125 -104z"/>
<path d="M5722 7485 c-68 -175 -54 -387 35 -558 49 -94 144 -189 343 -342 326
-250 393 -345 420 -596 6 -57 15 -147 21 -199 14 -131 43 -239 94 -347 95
-202 235 -358 530 -594 522 -416 1181 -973 1288 -1088 221 -239 307 -539 277
-971 -6 -91 -14 -271 -17 -401 -5 -197 -3 -253 12 -340 73 -443 352 -817 763
-1023 80 -40 151 -69 196 -80 l29 -7 -37 41 c-89 99 -158 236 -203 409 -34
126 -38 358 -10 491 36 164 102 302 207 429 l55 66 7 -75 c34 -348 198 -736
436 -1031 34 -43 106 -119 160 -170 287 -273 633 -430 1056 -480 163 -19 481
-7 651 25 471 89 911 295 1173 550 56 54 132 145 132 158 0 3 -37 -6 -82 -20
-76 -23 -100 -25 -273 -26 -219 -1 -330 16 -536 84 -188 62 -401 172 -467 243
l-22 23 68 -7 c114 -13 375 -10 497 6 717 94 1329 567 1534 1185 61 183 75
274 75 490 0 215 -15 314 -75 495 -153 458 -541 850 -1039 1050 -245 99 -498
145 -783 144 l-172 0 80 -28 c322 -111 574 -374 646 -676 28 -118 23 -303 -11
-410 -101 -316 -367 -540 -767 -645 -192 -51 -480 -68 -647 -40 l-79 13 24 19
c160 125 266 297 326 527 34 131 43 390 19 531 -25 142 -62 263 -116 378 -64
135 -124 223 -218 323 -69 74 -209 185 -219 175 -3 -2 3 -28 12 -58 26 -85 31
-240 10 -334 -46 -207 -169 -372 -346 -464 -97 -50 -179 -70 -300 -70 -119 0
-220 24 -332 81 -114 57 -123 64 -666 513 -606 501 -964 796 -1106 911 -172
139 -244 180 -378 219 -110 32 -199 44 -421 56 -102 6 -204 16 -232 25 -132
39 -177 113 -230 374 -61 304 -103 375 -268 452 -80 38 -167 55 -380 74 -225
20 -330 48 -451 118 -161 94 -248 221 -263 387 l-8 75 -22 -60z"/>
</g>
</svg>
