<svg xmlns="http://www.w3.org/2000/svg" width="123" height="27" viewBox="0 0 123 27">
    <path fill="#1d1c1d" d="M17.388 19.525a8.917 8.917 0 01-1.056 2.56 9.266 9.266 0 01-1.836 2.187 8.688 8.688 0 01-2.5 1.524 7.994 7.994 0 01-3.009.566 8.392 8.392 0 01-3.457-.723 9.242 9.242 0 01-2.853-1.972 9.505 9.505 0 01-1.953-2.912C.241 19.65.001 18.458.001 17.181c0-1.276.24-2.467.723-3.575a9.518 9.518 0 011.953-2.911A9.259 9.259 0 015.53 8.722 8.386 8.386 0 018.987 8c1.068 0 2.07.19 3.008.566a8.729 8.729 0 012.501 1.525 9.243 9.243 0 011.836 2.187 8.932 8.932 0 011.056 2.56h-4.494a4.158 4.158 0 00-.859-1.251c-.312-.313-.717-.605-1.212-.879-.494-.273-1.107-.41-1.836-.41-1.276 0-2.344.443-3.204 1.329-.859.885-1.289 2.07-1.289 3.555 0 1.484.43 2.67 1.29 3.555.859.886 1.927 1.329 3.203 1.329.73 0 1.342-.13 1.837-.391.494-.26.899-.547 1.211-.86.364-.365.65-.794.86-1.289zM29.11 7.999a7.01 7.01 0 012.714.528 5.96 5.96 0 012.168 1.523c.6.664 1.075 1.465 1.427 2.403.351.938.527 1.993.527 3.165v10.549h-4.493v-9.963c0-1.172-.346-2.116-1.035-2.833-.691-.715-1.583-1.074-2.677-1.074-1.093 0-1.987.359-2.676 1.074-.69.717-1.035 1.661-1.035 2.833v9.963h-4.494V1.553h4.494v8.4c.337-.365.742-.69 1.21-.977.417-.235.944-.455 1.583-.664.638-.208 1.4-.313 2.286-.313zM43.877 13.626c.86-.886 1.927-1.33 3.203-1.33 1.276 0 2.345.444 3.204 1.33.86.885 1.29 2.07 1.29 3.555 0 1.484-.43 2.67-1.29 3.555-.86.886-1.928 1.329-3.204 1.329-1.276 0-2.344-.443-3.203-1.329-.86-.885-1.29-2.07-1.29-3.555 0-1.485.43-2.67 1.29-3.555zm11.467-.02a9.532 9.532 0 00-1.954-2.911 9.254 9.254 0 00-2.852-1.973A8.389 8.389 0 0047.08 8a8.387 8.387 0 00-3.457.723 9.255 9.255 0 00-2.852 1.973 9.52 9.52 0 00-1.954 2.911 8.861 8.861 0 00-.723 3.575c0 1.276.24 2.468.723 3.574a9.506 9.506 0 001.954 2.912 9.238 9.238 0 002.852 1.972 8.392 8.392 0 003.457.723 8.394 8.394 0 003.458-.723 9.238 9.238 0 002.852-1.972 9.518 9.518 0 001.954-2.912 8.855 8.855 0 00.722-3.574 8.86 8.86 0 00-.722-3.575zM63.216 13.626c.86-.886 1.927-1.33 3.204-1.33 1.275 0 2.344.444 3.204 1.33.859.885 1.289 2.07 1.289 3.555 0 1.484-.43 2.67-1.29 3.555-.86.886-1.928 1.329-3.203 1.329-1.277 0-2.345-.443-3.204-1.329-.86-.885-1.29-2.07-1.29-3.555 0-1.485.43-2.67 1.29-3.555zm11.467-.02a9.531 9.531 0 00-1.953-2.911 9.256 9.256 0 00-2.853-1.973A8.386 8.386 0 0066.42 8a8.387 8.387 0 00-3.458.723 9.254 9.254 0 00-2.852 1.973 9.518 9.518 0 00-1.953 2.911 8.845 8.845 0 00-.724 3.575c0 1.276.24 2.468.724 3.574a9.504 9.504 0 001.953 2.912 9.237 9.237 0 002.852 1.972 8.392 8.392 0 003.458.723 8.391 8.391 0 003.457-.723 9.24 9.24 0 002.853-1.972 9.517 9.517 0 001.953-2.912 8.854 8.854 0 00.723-3.574 8.858 8.858 0 00-.723-3.575zM81.07 20.502c.104.599.392 1.107.86 1.523.47.417 1.094.625 1.876.625.781 0 1.4-.201 1.856-.605.455-.403.683-.853.683-1.348 0-.416-.228-.742-.683-.977-.456-.234-1.023-.449-1.7-.644a97.983 97.983 0 00-2.207-.606 8.458 8.458 0 01-2.208-.918 5.55 5.55 0 01-1.7-1.563c-.455-.638-.683-1.478-.683-2.52a5.024 5.024 0 011.758-3.83 6.825 6.825 0 012.032-1.19c.781-.3 1.667-.45 2.657-.45 2.16 0 3.822.522 4.98 1.563 1.16 1.042 1.843 2.345 2.052 3.907h-4.298c-.104-.39-.384-.781-.84-1.172-.456-.39-1.022-.586-1.7-.586-.676 0-1.204.17-1.581.508a1.61 1.61 0 00-.567 1.25c0 .417.228.742.684.977.455.235 1.022.45 1.7.644.676.195 1.412.405 2.207.625a8.6 8.6 0 012.207.958 5.613 5.613 0 011.7 1.621c.455.665.684 1.53.684 2.599a4.85 4.85 0 01-.47 2.09 5.214 5.214 0 01-1.327 1.738c-.574.495-1.27.893-2.091 1.192-.82.3-1.739.45-2.755.45-2.344 0-4.121-.534-5.332-1.602-1.212-1.068-1.909-2.488-2.09-4.26zM97.676 26.167h-4.493V8.195h4.493zM95.526 5.85c-.677 0-1.269-.253-1.777-.761-.508-.509-.762-1.101-.762-1.778s.254-1.27.762-1.778 1.1-.762 1.778-.762c.677 0 1.27.254 1.778.762.507.508.761 1.1.761 1.778 0 .677-.254 1.27-.761 1.778-.508.508-1.101.761-1.778.761zM102.949 3.897h3.907v4.298h3.907v4.102h-3.907v7.423c0 .782.228 1.4.684 1.856.456.456 1.074.683 1.856.683.208 0 .377-.006.508-.02a2.36 2.36 0 00.351-.057c.104-.026.209-.065.313-.117v3.906a3.576 3.576 0 01-.625.196c-.443.13-.951.195-1.524.195-.886 0-1.699-.15-2.441-.449a5.272 5.272 0 01-1.915-1.31 6.17 6.17 0 01-1.25-2.031c-.3-.781-.45-1.666-.45-2.656v-7.62h-2.735v-3.71h1.172c1.433 0 2.149-.717 2.149-2.15z"></path>
    <path fill="#3960ff" d="M117.484.607h4.493v17.972h-4.493zm2.149 20.316c.677 0 1.27.254 1.778.762.507.508.761 1.1.761 1.778 0 .677-.254 1.27-.761 1.777-.509.508-1.1.763-1.778.763-.677 0-1.27-.255-1.778-.763-.508-.507-.762-1.1-.762-1.777 0-.677.254-1.27.762-1.778s1.1-.762 1.778-.762z"></path>
</svg>